<svg width="31" height="32" viewBox="0 0 31 32" fill="none" xmlns="http://www.w3.org/2000/svg">
<g filter="url(#filter0_d_2_260643)">
<path d="M15.38 3.0625C15.267 3.06251 15.1568 3.09711 15.064 3.16163C14.9713 3.22615 14.9006 3.3175 14.8613 3.42342L8.35823 15.7531C8.24718 15.9291 8.188 16.1328 8.1875 16.3409C8.1875 16.6344 8.30408 16.9158 8.5116 17.1233C8.71911 17.3309 9.00056 17.4474 9.29403 17.4474H14.8267V26.853C14.8267 26.9997 14.885 27.1404 14.9888 27.2442C15.0925 27.348 15.2332 27.4062 15.38 27.4062C15.4818 27.4064 15.5817 27.3784 15.6686 27.3254C15.7556 27.2724 15.8262 27.1964 15.8727 27.1058L22.4233 14.6833L22.4212 14.6811C22.5193 14.5132 22.5715 14.3224 22.5724 14.1278C22.5724 13.8344 22.4559 13.5529 22.2483 13.3454C22.0408 13.1379 21.7594 13.0213 21.4659 13.0213H15.9332V3.61577C15.9332 3.46903 15.8749 3.32831 15.7712 3.22455C15.6674 3.12079 15.5267 3.0625 15.38 3.0625Z" fill="url(#paint0_linear_2_260643)"/>
</g>
<defs>
<filter id="filter0_d_2_260643" x="8.1875" y="3.0625" width="14.3848" height="28.3438" filterUnits="userSpaceOnUse" colorInterpolationFilters="sRGB">
<feFlood floodOpacity="0" result="BackgroundImageFix"/>
<feColorMatrix in="SourceAlpha" type="matrix" values="0 0 0 0 0 0 0 0 0 0 0 0 0 0 0 0 0 0 127 0" result="hardAlpha"/>
<feOffset dy="4"/>
<feComposite in2="hardAlpha" operator="out"/>
<feColorMatrix type="matrix" values="0 0 0 0 0 0 0 0 0 0 0 0 0 0 0 0 0 0 0.25 0"/>
<feBlend mode="normal" in2="BackgroundImageFix" result="effect1_dropShadow_2_260643"/>
<feBlend mode="normal" in="SourceGraphic" in2="effect1_dropShadow_2_260643" result="shape"/>
</filter>
<linearGradient id="paint0_linear_2_260643" x1="15.38" y1="3.0625" x2="15.38" y2="27.4062" gradientUnits="userSpaceOnUse">
<stop stop-color="#373FFF"/>
<stop offset="1" stop-color="#22CAFF"/>
</linearGradient>
</defs>
</svg>
