<svg width="33" height="33" viewBox="0 0 33 33" fill="none" xmlns="http://www.w3.org/2000/svg">
<path opacity="0.4" fill-rule="evenodd" clip-rule="evenodd" d="M16.4866 5.33789H16.5C18.4183 5.33789 20.2829 5.79815 22 6.66316L17.5195 11.1859C17.1976 11.1317 16.8488 11.0911 16.5 11.0911C13.5354 11.0911 11.1341 13.5142 11.1341 16.5059C11.1341 16.8579 11.1744 17.2098 11.228 17.5347L6.26463 22.5434C4.92317 20.9731 3.7561 19.0766 2.83049 16.8985C2.72317 16.6548 2.72317 16.357 2.83049 16.0998C5.70122 9.35838 10.8122 5.33789 16.4866 5.33789ZM25.3402 9.00642C27.2854 10.7933 28.9354 13.2029 30.1695 16.0998C30.2768 16.357 30.2768 16.6548 30.1695 16.8985C27.2988 23.6399 22.1878 27.6739 16.5 27.6739H16.4866C13.8976 27.6739 11.4159 26.8211 9.22927 25.2643L13.4817 20.9731C14.3402 21.5539 15.3866 21.9072 16.5 21.9072C19.4512 21.9072 21.8524 19.484 21.8524 16.5059C21.8524 15.3823 21.5037 14.3265 20.9268 13.4601L25.3402 9.00642Z" fill="#FEFEFE"/>
<path fill-rule="evenodd" clip-rule="evenodd" d="M25.3409 9.00558L27.7823 6.54185C28.1848 6.14928 28.1848 5.4995 27.7823 5.10693C27.3933 4.71436 26.7628 4.71436 26.3604 5.10693L25.0994 6.37941C25.086 6.40648 25.0592 6.43355 25.0323 6.46063C25.0189 6.4877 24.9921 6.51478 24.9653 6.54185L23.7714 7.748L19.5189 12.0392L5.12502 26.5631L5.08478 26.6172C4.81648 27.0098 4.87014 27.5526 5.20551 27.891C5.39331 28.0927 5.66161 28.1875 5.91648 28.1875C6.17136 28.1875 6.42624 28.0927 6.62746 27.891L20.9275 13.4593L25.3409 9.00558ZM16.5008 19.8763C18.3386 19.8763 19.841 18.3602 19.841 16.5056C19.841 15.9371 19.7069 15.3956 19.4654 14.9353L14.9447 19.4973C15.4008 19.741 15.9373 19.8763 16.5008 19.8763Z" fill="#FEFEFE"/>
</svg>
