<svg width="31" height="32" viewBox="0 0 31 32" fill="none" xmlns="http://www.w3.org/2000/svg">
<g filter="url(#filter0_d_2_260634)">
<path d="M22.8976 18.402C22.5739 18.7157 22.4251 19.1695 22.4989 19.6145L23.6101 25.7645C23.7039 26.2857 23.4839 26.8132 23.0476 27.1145C22.6201 27.427 22.0514 27.4645 21.5851 27.2145L16.0489 24.327C15.8564 24.2245 15.6426 24.1695 15.4239 24.1632H15.0851C14.9676 24.1807 14.8526 24.2182 14.7476 24.2757L9.21012 27.177C8.93637 27.3145 8.62637 27.3632 8.32262 27.3145C7.58262 27.1745 7.08887 26.4695 7.21012 25.7257L8.32262 19.5757C8.39637 19.127 8.24762 18.6707 7.92387 18.352L3.41012 13.977C3.03262 13.6107 2.90137 13.0607 3.07387 12.5645C3.24137 12.0695 3.66887 11.7082 4.18512 11.627L10.3976 10.7257C10.8701 10.677 11.2851 10.3895 11.4976 9.96445L14.2351 4.35195C14.3001 4.22695 14.3839 4.11195 14.4851 4.01445L14.5976 3.92695C14.6564 3.86195 14.7239 3.8082 14.7989 3.76445L14.9351 3.71445L15.1476 3.62695H15.6739C16.1439 3.6757 16.5576 3.95695 16.7739 4.37695L19.5476 9.96445C19.7476 10.3732 20.1364 10.657 20.5851 10.7257L26.7976 11.627C27.3226 11.702 27.7614 12.0645 27.9351 12.5645C28.0989 13.0657 27.9576 13.6157 27.5726 13.977L22.8976 18.402Z" fill="url(#paint0_linear_2_260634)"/>
</g>
<defs>
<filter id="filter0_d_2_260634" x="2.99902" y="3.62695" width="25.0029" height="27.752" filterUnits="userSpaceOnUse" color-interpolation-filters="sRGB">
<feFlood flood-opacity="0" result="BackgroundImageFix"/>
<feColorMatrix in="SourceAlpha" type="matrix" values="0 0 0 0 0 0 0 0 0 0 0 0 0 0 0 0 0 0 127 0" result="hardAlpha"/>
<feOffset dy="4"/>
<feComposite in2="hardAlpha" operator="out"/>
<feColorMatrix type="matrix" values="0 0 0 0 0 0 0 0 0 0 0 0 0 0 0 0 0 0 0.25 0"/>
<feBlend mode="normal" in2="BackgroundImageFix" result="effect1_dropShadow_2_260634"/>
<feBlend mode="normal" in="SourceGraphic" in2="effect1_dropShadow_2_260634" result="shape"/>
</filter>
<linearGradient id="paint0_linear_2_260634" x1="2.99951" y1="4.00171" x2="27.9995" y2="28.5017" gradientUnits="userSpaceOnUse">
<stop stop-color="#FF37DF"/>
<stop offset="1" stop-color="#22FFF2"/>
</linearGradient>
</defs>
</svg>
